<svg width="133" height="64" viewBox="0 0 133 64" fill="none" xmlns="http://www.w3.org/2000/svg">
<path d="M88.9207 43.4434H86.0854V45.658H88.9207V43.4434Z" fill="#002F87"/>
<path d="M26.1823 37.4068C32.4463 36.6194 38.7103 35.9797 45.0073 35.5039C45.0403 25.53 45.0567 15.556 45.0897 5.56562C46.8206 5.54921 48.5514 5.5164 50.2987 5.5C50.2822 16.3434 50.2493 27.1868 50.2163 38.0466C50.2163 41.2455 49.4581 42.9352 47.9415 43.0664C39.6005 43.7554 31.2759 44.7889 23.0173 46.1505C22.5888 46.2161 22.1107 45.8716 21.5668 45.0678C21.0557 44.2639 20.792 42.6727 20.792 40.212C20.8085 28.8109 20.825 17.4097 20.8414 6.00854C22.6547 5.95933 24.468 5.92652 26.2812 5.8773C26.2153 16.409 26.1988 26.9079 26.1823 37.4068Z" fill="#010101"/>
<path d="M89.0854 5.4343C89.1019 7.977 89.1019 10.5361 89.1019 13.0788C80.0191 12.9476 70.9363 12.9148 61.8535 13.0296C61.8535 15.277 61.8535 17.508 61.8535 19.7391C69.0571 19.6078 76.2607 19.5914 83.4643 19.6899C83.4643 25.251 83.4808 30.8285 83.4808 36.3897C83.4808 38.2762 83.2335 39.7034 82.8049 40.6549C82.3434 41.6227 81.6675 42.0493 80.7609 42.0328C72.6177 41.8688 64.491 42 56.3643 42.4594C56.3643 39.9003 56.3807 37.3411 56.3807 34.7984C63.6668 34.4539 70.9528 34.3391 78.2553 34.4047V27.2688C70.9693 27.2031 63.6832 27.3016 56.3972 27.5804C56.4137 22.1177 56.4137 16.6714 56.4302 11.2087C56.4302 9.60105 56.661 8.20667 57.1225 7.10756C57.5841 5.94284 58.2764 5.4343 59.1666 5.41789C69.1395 5.36868 79.1124 5.36868 89.0854 5.4343Z" fill="#010101"/>
<path d="M94.5747 42.6401C93.6681 42.5745 92.8768 42.1316 92.201 41.2785C91.5087 40.4255 91.1625 38.9163 91.146 36.6688C91.1295 26.2519 91.113 15.8515 91.0801 5.43457C92.8274 5.45097 94.5747 5.46738 96.3056 5.48378C96.3385 15.3429 96.355 25.1857 96.3715 35.0284C99.8332 35.2416 103.394 35.4877 106.921 35.7994C110.498 36.1111 114.075 36.472 117.686 36.8821C117.702 39.5888 117.702 42.2956 117.702 45.0023C110.037 43.9361 102.322 43.1486 94.5747 42.6401Z" fill="#010101"/>
<path d="M121.939 5.89355C123.752 5.94277 125.565 5.97558 127.379 6.02479C127.395 19.5257 127.412 33.0267 127.428 46.5276C125.631 46.2159 123.818 45.9207 122.005 45.6418C122.005 32.4033 121.972 19.1484 121.939 5.89355Z" fill="#010101"/>
<path d="M26.3129 37.4233C32.5605 36.603 38.841 35.9468 45.1215 35.4383C45.1544 25.4807 45.1709 15.5068 45.2039 5.54921C46.9347 5.53281 48.6656 5.5164 50.3964 5.5C50.3634 16.327 50.347 27.154 50.314 37.981C50.314 41.1799 49.5557 42.8532 48.0392 42.9844C39.6982 43.7226 31.3901 44.7889 23.115 46.2161C22.6864 46.2981 22.1919 45.9372 21.6644 45.1498C21.1534 44.3624 20.8896 42.7547 20.8896 40.2776C20.9061 28.8273 20.9061 17.3933 20.9226 5.94292C22.7359 5.91011 24.5491 5.8773 26.3624 5.8445C26.3624 16.3762 26.3459 26.8915 26.3129 37.4233Z" fill="#010101"/>
<path d="M23.016 51.6294C21.4335 51.6294 19.1257 51.0225 17.1806 48.1681L17.0981 48.0532C15.9607 46.2979 15.4497 43.8865 15.4662 40.2611L15.4992 0.644078L20.8071 0.529246C22.6203 0.496437 24.4501 0.447223 26.2634 0.414414L31.8021 0.315987L31.7361 31.3042C34.3901 31.0089 37.0276 30.73 39.6815 30.484L39.7639 0.201155L55.8361 0.0371094L55.7372 37.9808C55.7207 46.7737 50.6765 48.1681 48.5006 48.3649C40.3244 49.0703 32.0988 50.153 24.0215 51.531C23.7248 51.5966 23.3786 51.6294 23.016 51.6294Z" fill="#002F87"/>
<path d="M89.2339 5.43437C89.2339 7.97708 89.2339 10.5198 89.2504 13.0625C80.1676 12.9313 71.1012 12.9148 62.0184 13.0297C62.0184 15.2607 62.0184 17.4917 62.0019 19.7063C69.2056 19.5751 76.4092 19.5587 83.6128 19.6571C83.6128 25.2019 83.6293 30.7466 83.6457 36.2913C83.6457 38.1614 83.3985 39.5886 82.9699 40.5401C82.5083 41.4916 81.816 41.9345 80.9258 41.9181C72.7826 41.7376 64.6394 41.8853 56.5127 42.361C56.5127 39.8183 56.5292 37.2592 56.5292 34.7165C63.8152 34.372 71.1177 34.2244 78.4038 34.3064C78.4038 31.9441 78.4038 29.5655 78.4038 27.2032C71.1177 27.1376 63.8317 27.2524 56.5457 27.5313C56.5622 22.085 56.5621 16.6387 56.5786 11.1924C56.5786 9.58472 56.8094 8.19034 57.271 7.10764C57.7325 5.95932 58.4249 5.43437 59.315 5.43437C69.2715 5.38516 79.261 5.38516 89.2339 5.43437Z" fill="#010101"/>
<path d="M51.0566 48.1022L51.1391 11.192C51.1556 8.82975 51.5182 6.74637 52.26 5.00749C53.4963 1.93984 56.1338 0.0533148 59.2823 0.0369102C69.2882 -0.0123034 79.2777 -0.0123034 89.2836 0.0369102L94.6739 0.0697193L94.7069 18.5576L89.1847 18.4756C89.1352 18.4756 89.1023 18.4756 89.0528 18.4756L89.0858 36.3074C89.0858 38.9649 88.7066 41.0811 87.9154 42.8036L87.8659 42.9184C86.5142 45.6908 83.9427 47.3476 80.9755 47.3476H80.7942C72.8488 47.1672 64.7715 47.3148 56.8261 47.7906L51.0566 48.1022Z" fill="#002F87"/>
<path d="M94.7075 42.5409C93.8174 42.4753 93.0097 42.0323 92.3338 41.1793C91.658 40.3427 91.2953 38.8171 91.2788 36.586C91.2623 26.202 91.2294 15.8343 91.2129 5.4502C92.9602 5.4666 94.6911 5.483 96.4384 5.49941C96.4714 15.3257 96.4878 25.1521 96.5043 34.9784C99.966 35.1916 103.51 35.4541 107.054 35.7658C110.615 36.0939 114.208 36.4548 117.818 36.8977C117.818 39.6045 117.835 42.3276 117.835 45.0344C110.17 43.9025 102.455 43.0658 94.7075 42.5409Z" fill="#010101"/>
<path d="M123.306 51.2847L117.059 50.3661C109.559 49.267 101.91 48.4468 94.3272 47.9382C92.6293 47.8234 90.1731 47.1344 88.0961 44.5753C86.5631 42.6888 85.8378 40.146 85.8378 36.6027L85.7554 0.0205078L101.844 0.151744L101.91 29.9424C103.789 30.0901 105.668 30.2377 107.531 30.4017C111.174 30.7298 114.85 31.1071 118.46 31.5501L123.241 32.1242L123.306 51.2847Z" fill="#002F87"/>
<path d="M122.07 5.82715C123.883 5.85996 125.696 5.89277 127.51 5.92558C127.526 19.4757 127.543 33.0423 127.559 46.5925C125.762 46.2644 123.949 45.9527 122.152 45.6738C122.136 32.4025 122.103 19.1148 122.07 5.82715Z" fill="#010101"/>
<path d="M133 53.0893L126.588 51.9409C124.824 51.6129 123.06 51.3176 121.28 51.0387L116.73 50.3005L116.631 0.348633L122.187 0.44706C124 0.479869 125.813 0.512678 127.643 0.561892L132.951 0.676724L133 53.0893Z" fill="#002F87"/>
<path d="M26.1487 36.701C32.3797 35.7167 38.6437 34.9457 44.9407 34.3387C44.9736 24.4304 45.0066 14.5384 45.0396 4.64648C46.7869 4.64648 48.5177 4.64648 50.2486 4.64648C50.2156 15.3587 50.1827 26.0708 50.1497 36.7666C50.1497 39.9327 49.3914 41.6059 47.8749 41.77C39.5338 42.6558 31.2423 43.9682 23.0002 45.7071C22.5716 45.8055 22.077 45.461 21.5495 44.6736C21.0385 43.8862 20.7583 42.2457 20.7583 39.7358V4.66289C22.5716 4.66289 24.3848 4.66289 26.2146 4.66289C26.1816 15.3423 26.1651 26.0216 26.1487 36.701Z" fill="white"/>
<path d="M22.8522 45.8717C22.4071 45.8717 21.9291 45.5108 21.4181 44.7562C20.8906 43.9196 20.6104 42.2299 20.6104 39.7364V4.53223H26.3304L26.2809 36.5539C32.3966 35.6025 38.6111 34.815 44.7927 34.2409L44.8916 4.53223H50.3644L50.2655 36.8C50.249 40.0809 49.4742 41.7706 47.8588 41.9346C39.5342 42.8205 31.1767 44.1492 23.0006 45.8717C22.9511 45.8553 22.9017 45.8717 22.8522 45.8717ZM20.8906 4.7947V39.7364C20.8906 42.1807 21.1379 43.8211 21.6489 44.6086C22.1434 45.3304 22.5884 45.6585 22.9676 45.5928C31.1438 43.8704 39.5178 42.5416 47.8588 41.6557C49.2929 41.4917 50.0017 39.9005 50.0182 36.7836L50.1171 4.7947H45.1883L45.0894 34.4869L44.974 34.5034C38.71 35.0939 32.3966 35.8813 26.1985 36.8656L26.0502 36.882L26.0996 4.8111L20.8906 4.7947Z" fill="white"/>
<path d="M91.8874 4.64629C91.8379 7.15618 91.7885 9.66608 91.739 12.176C81.7661 12.0283 71.7767 11.9955 61.8037 12.1104C61.8037 14.2922 61.8037 16.4904 61.7872 18.6722C68.9908 18.5245 76.1944 18.5081 83.398 18.623C83.398 24.0693 83.4145 29.5156 83.4145 34.9619C83.4145 36.8156 83.1673 38.1936 82.7387 39.1287C82.2771 40.0637 81.5848 40.4902 80.6782 40.4574C72.535 40.2278 64.3917 40.4246 56.2485 40.9988C56.265 38.4889 56.265 35.979 56.265 33.4691C63.5511 33.059 70.8535 32.8949 78.1396 32.9934C78.1396 30.6803 78.1396 28.3509 78.1396 26.0214C70.8535 25.9558 63.5675 26.0706 56.2815 26.3823C56.298 21.018 56.3145 15.6537 56.331 10.2895C56.331 8.71462 56.5617 7.33663 57.0233 6.27034C57.4849 5.13842 58.1607 4.62988 59.0673 4.62988C70.0293 4.64629 80.9584 4.64629 91.8874 4.64629Z" fill="white"/>
<path d="M56.1504 41.1624L56.1669 33.3539H56.2987C63.5188 32.9437 70.8214 32.7797 78.0579 32.8781L78.0415 26.1851C70.8378 26.1194 63.5353 26.2343 56.3317 26.546H56.1834L56.2328 10.3055C56.2328 8.665 56.4801 7.30342 56.9416 6.23713C57.4197 5.0724 58.1285 4.51465 59.1176 4.51465H72.7995H92.0366L91.8882 12.3232H91.7564C81.8493 12.1756 71.8599 12.1428 61.9529 12.2576L61.9364 18.5569C69.074 18.4257 76.2776 18.4093 83.4153 18.5077H83.5472L83.5637 34.9779C83.5637 36.7988 83.3329 38.226 82.8714 39.2103C82.4098 40.1453 81.701 40.6211 80.7779 40.6211C78.4865 40.5555 76.2447 40.5226 74.0358 40.5226C68.1344 40.5226 62.1836 40.7359 56.2987 41.1624H56.1504ZM56.4471 33.6163L56.4306 40.8835C64.4749 40.3094 72.6511 40.1289 80.7284 40.3422C81.6185 40.3422 82.2285 39.9321 82.6406 39.079C83.0857 38.1276 83.3164 36.7496 83.2999 34.9615L83.267 18.7538C76.1293 18.6554 68.9257 18.6718 61.788 18.803H61.6396L61.6561 11.9623H61.788C71.695 11.8639 81.6845 11.8803 91.5915 12.0279L91.7234 4.76072H72.75H59.0681C58.2109 4.76072 57.5845 5.26926 57.1395 6.31915C56.6944 7.35264 56.4636 8.69781 56.4636 10.2891L56.4141 26.2343C63.6178 25.9226 70.9203 25.8078 78.1239 25.8734H78.2558V33.1078H78.1239C70.9532 33.0422 63.6507 33.2062 56.4471 33.6163Z" fill="white"/>
<path d="M94.5253 41.2284C93.6187 41.1464 92.8274 40.7035 92.1516 39.8505C91.4757 39.0138 91.1131 37.5046 91.0966 35.3064C91.0636 25.0864 91.0471 14.8499 91.0142 4.62988C92.7615 4.62988 94.4923 4.62988 96.2397 4.62988C96.2726 14.3414 96.2891 24.0529 96.3221 33.7644C99.7838 34.0104 103.328 34.3221 106.872 34.7158C110.433 35.0931 114.026 35.5361 117.636 36.0446C117.636 38.7842 117.653 41.5073 117.653 44.2469C109.971 42.8853 102.256 41.8846 94.5253 41.2284Z" fill="white"/>
<path d="M117.785 44.4277L117.62 44.3949C110.004 43.0333 102.224 41.9998 94.5092 41.3601C93.5696 41.278 92.7454 40.8023 92.0366 39.9329C91.3113 39.047 90.9651 37.5378 90.9486 35.3068L90.8662 4.49902H96.3554L96.4543 33.6499C99.9325 33.896 103.444 34.2077 106.872 34.585C110.449 34.9623 114.059 35.4216 117.637 35.9301L117.752 35.9466L117.785 44.4277ZM91.1464 4.7779L91.2289 35.3232C91.2289 37.4558 91.575 38.9486 92.2509 39.7688C92.9102 40.5726 93.6685 41.032 94.5422 41.0976C102.224 41.7374 109.955 42.7544 117.521 44.0996L117.505 36.1762C113.994 35.6677 110.4 35.2248 106.872 34.8474C103.394 34.4701 99.8501 34.1585 96.339 33.9124L96.2071 33.896L96.1247 4.7615H91.1464V4.7779Z" fill="white"/>
<path d="M121.873 4.66309C123.686 4.66309 125.5 4.66309 127.313 4.66309C127.313 18.5085 127.313 32.354 127.313 46.1994C125.516 45.8057 123.719 45.4284 121.922 45.0675C121.906 31.5994 121.89 18.1312 121.873 4.66309Z" fill="white"/>
<path d="M127.445 46.3627L127.28 46.3299C125.483 45.9361 123.686 45.5588 121.889 45.1979L121.774 45.1815V45.0667L121.708 4.51465H127.428L127.445 46.3627ZM122.054 44.9683C123.752 45.3128 125.466 45.6573 127.164 46.0346V4.79353H121.988L122.054 44.9683Z" fill="white"/>
<path d="M23.3954 24.0362L21.4502 24.8564L21.4667 40.3751C21.4667 40.3751 21.4172 44.5255 23.1481 44.788C23.1481 44.788 39.451 41.2282 47.5942 40.8673C47.5942 40.8673 49.7702 40.6868 49.7207 36.3232L49.7537 17.1299L47.5778 17.4744L45.781 17.8189L45.6985 34.6335C45.6985 34.6335 28.6868 36.7005 25.7856 37.652L25.8515 23.1175L23.3954 24.0362Z" fill="#BBBDBF"/>
<path d="M23.1485 44.9201H23.1155C21.3023 44.6413 21.3187 40.5401 21.3187 40.3761L21.3022 24.7754L23.3133 23.9223L25.9508 22.9052L25.8849 37.4397C29.0828 36.521 43.9186 34.6837 45.5341 34.4869L45.6165 17.6886L47.5287 17.3277L49.8694 16.9668L49.8365 36.3242C49.8859 40.7698 47.677 40.9995 47.5781 41.0159C39.5338 41.3768 23.3133 44.9037 23.1485 44.9365V44.9201Z" fill="white"/>
<path d="M59.2165 15.9658L56.7769 16.1955V25.5789C56.7769 25.5789 74.8765 24.7258 78.9976 25.3984L78.8163 33.8632C78.8163 33.8632 67.0465 33.1906 57.0406 34.142L56.9911 40.0969C56.9911 40.0969 75.6843 38.8337 79.7064 39.6048C79.7064 39.6048 82.5252 40.425 82.8384 35.6349L82.7066 19.3287C82.7066 19.3287 63.4694 18.9186 61.2441 19.2795L61.2276 15.7197L59.2165 15.9658Z" fill="#BBBDBF"/>
<path d="M56.8749 40.2447L56.9244 34.0274L57.0563 34.011C60.6004 33.6829 64.7379 33.5024 69.3865 33.5024C74.1669 33.5024 77.9418 33.6829 78.7166 33.7321L78.8979 25.5298C77.8265 25.3658 75.7989 25.2838 72.8977 25.2838C66.1886 25.2838 56.9079 25.7103 56.809 25.7267H56.6606V16.0808L61.4081 15.5723L61.4246 19.1321C62.1829 19.05 64.095 19.0008 67.1117 19.0008C73.4416 19.0008 82.6563 19.1977 82.7553 19.1977H82.8871L83.019 35.635C82.7717 39.3917 80.975 39.7854 80.2167 39.7854C79.92 39.7854 79.7386 39.7362 79.7222 39.7362C78.8815 39.5721 77.2825 39.4901 74.9747 39.4901C68.1172 39.4901 57.1552 40.2283 57.0398 40.2283L56.8749 40.2447Z" fill="white"/>
<path d="M117.076 43.6239L116.894 43.5747C115.065 43.0169 99.6684 41.3436 95.3825 40.9663C91.2285 40.6054 91.3274 35.602 91.3274 35.5528V15.7197L95.9429 16.1791L95.9265 34.142C100.328 33.9288 116.697 36.6027 116.861 36.6355L116.977 36.6519L117.076 43.6239ZM91.6076 16.015V35.5528C91.6076 35.7497 91.5252 40.343 95.4155 40.6875C98.9925 40.9991 114.207 42.6068 116.812 43.263L116.713 36.898C115.229 36.6519 99.7838 34.1748 95.8111 34.4373H95.6627V16.4251L91.6076 16.015Z" fill="white"/>
<path d="M124.808 22.9538L122.335 22.1172L122.286 44.411C122.286 44.411 126.341 45.1164 126.852 45.3296L126.819 23.6756L124.808 22.9538Z" fill="#BBBDBF"/>
<path d="M126.983 45.5271L126.801 45.445C126.406 45.281 123.389 44.7232 122.268 44.5428L122.153 44.5264L122.202 21.9209L126.966 23.5614L126.983 45.5271Z" fill="white"/>
<path d="M1.09285 63.7852C38.6604 51.4326 79.1951 50.5795 117.307 61.0456C119.466 61.6362 123.801 58.6013 125.549 57.6827C127.395 56.6984 129.225 55.6813 130.956 54.533C130.708 54.6971 133.263 53.1386 132.934 53.0566C80.9424 39.326 45.2211 43.6404 14.1813 55.8454C10.4559 57.3054 6.73043 59.1755 3.3182 61.2261C2.87313 61.5214 -2.17103 64.8679 1.09285 63.7852Z" fill="#FF8300"/>
</svg>
